<?xml version="1.0" encoding="utf-8"?>
<!-- Generator: Adobe Adobe Illustrator 29.2.0, SVG Export Plug-In . SVG Version: 6.00 Build 0)  -->
<svg version="1.1" id="Layer_1" xmlns="http://www.w3.org/2000/svg" xmlns:xlink="http://www.w3.org/1999/xlink" x="0px" y="0px"
	 width="2950px" height="1200px" viewBox="0 0 2950 1200" style="enable-background:new 0 0 2950 1200;" xml:space="preserve">
<style type="text/css">
	.st0{fill:#464E7D;}
	.st1{fill:#598DB5;}
	.st2{fill:#0F1246;}
	.st3{fill:#F08B23;}
	.st4{fill:#FEDC01;}
	.st5{fill:none;}
	.st6{fill:#14F7E6;}
	.st7{fill:#F33175;}
	.st8{fill:#5186ED;}
	.st9{fill:#66B7F3;}
</style>
<rect x="1321.19" y="341.72" transform="matrix(-0.7071 -0.7071 0.7071 -0.7071 2345.7078 1715.0601)" class="st0" width="413.74" height="60"/>
<rect x="930.55" y="276.48" transform="matrix(0.866 -0.5 0.5 0.866 -4.9576 594.4611)" class="st1" width="352.49" height="60"/>
<rect x="1295.53" y="772.79" transform="matrix(0.7071 -0.7071 0.7071 0.7071 -120.1035 1315.6302)" class="st2" width="465.05" height="60"/>
<rect x="1372.46" y="627.26" transform="matrix(-0.9397 0.342 -0.342 -0.9397 3179.3276 753.918)" class="st0" width="301.46" height="60"/>
<rect x="1370.79" y="492.44" transform="matrix(0.9397 0.342 -0.342 0.9397 271.3462 -493.9802)" class="st2" width="331.21" height="60"/>
<rect x="945.18" y="826.78" transform="matrix(0.866 0.5 -0.5 0.866 577.2098 -440.6078)" class="st0" width="331.21" height="60"/>
<rect x="929.75" y="697.03" class="st3" width="352.15" height="60"/>
<rect x="941.19" y="558.49" transform="matrix(0.8373 0.5467 -0.5467 0.8373 501.7504 -509.3418)" class="st1" width="331.21" height="60"/>
<rect x="931.13" y="552.27" transform="matrix(0.832 -0.5547 0.5547 0.832 -136.0601 715.1677)" class="st4" width="363.72" height="60"/>
<rect x="928.79" y="413.51" class="st3" width="352.15" height="60"/>
<line class="st5" x1="1004" y1="695.2" x2="996.49" y2="695.18"/>
<line class="st5" x1="1010.42" y1="695.26" x2="996.22" y2="695.18"/>
<path class="st5" d="M1016.45,695.31l-19.96-0.13L1016.45,695.31z"/>
<line class="st5" x1="1004.46" y1="690.6" x2="997.21" y2="695.18"/>
<line class="st5" x1="996.78" y1="696.15" x2="1106.8" y2="622.8"/>
<line class="st5" x1="1318.14" y1="1091.47" x2="1317.47" y2="63.95"/>
<line class="st5" x1="1653.03" y1="522.44" x2="1574.27" y2="497.82"/>
<line class="st5" x1="1000.66" y1="477.95" x2="996.33" y2="474.79"/>
<circle class="st6" cx="891.21" cy="733.19" r="106"/>
<circle class="st6" cx="891.21" cy="458.15" r="106"/>
<circle class="st7" cx="1713.69" cy="581.33" r="106"/>
<g>
	<path class="st8" d="M1423.41,188.35c0,58.55-47.46,106-106,106v-212C1375.95,82.35,1423.41,129.81,1423.41,188.35z"/>
	<path class="st9" d="M1317.41,82.35v212c-58.54,0-106-47.45-106-106C1211.41,129.81,1258.87,82.35,1317.41,82.35z"/>
</g>
<g>
	<path class="st8" d="M1424.12,453.82c0,58.55-47.46,106-106,106v-212C1376.66,347.82,1424.12,395.28,1424.12,453.82z"/>
	<path class="st9" d="M1318.12,347.82v212c-58.54,0-106-47.45-106-106C1212.12,395.28,1259.58,347.82,1318.12,347.82z"/>
</g>
<g>
	<path class="st8" d="M1424.12,725.82c0,58.55-47.46,106-106,106v-212C1376.66,619.82,1424.12,667.28,1424.12,725.82z"/>
	<path class="st9" d="M1318.12,619.82v212c-58.54,0-106-47.45-106-106C1212.12,667.28,1259.58,619.82,1318.12,619.82z"/>
</g>
<g>
	<path class="st8" d="M1424.12,976.48c0,58.55-47.46,106-106,106v-212C1376.66,870.48,1424.12,917.94,1424.12,976.48z"/>
	<path class="st9" d="M1318.12,870.48v212c-58.54,0-106-47.45-106-106C1212.12,917.94,1259.58,870.48,1318.12,870.48z"/>
</g>
</svg>
